<?xml version="1.0" standalone="no"?><!DOCTYPE svg PUBLIC "-//W3C//DTD SVG 1.1//EN" "http://www.w3.org/Graphics/SVG/1.1/DTD/svg11.dtd"><svg t="1552727832256" class="icon" style="" viewBox="0 0 1024 1024" version="1.1" xmlns="http://www.w3.org/2000/svg" p-id="8877" xmlns:xlink="http://www.w3.org/1999/xlink" width="200" height="200"><defs><style type="text/css"></style></defs><path d="M512 0a512 512 0 1 0 512 512A512 512 0 0 0 512 0z m0 981.333333a469.333333 469.333333 0 1 1 469.333333-469.333333 469.333333 469.333333 0 0 1-469.333333 469.333333z" p-id="8878" fill="#bfbfbf"></path><path d="M528.853333 234.666667A149.333333 149.333333 0 0 0 362.666667 384h42.666666a106.666667 106.666667 0 1 1 159.36 92.8A149.333333 149.333333 0 0 0 490.666667 606.293333V640h42.666666v-33.706667a106.666667 106.666667 0 0 1 52.48-92.373333A149.333333 149.333333 0 0 0 528.853333 234.666667z" p-id="8879" fill="#bfbfbf"></path><path d="M512 746.666667m-42.666667 0a42.666667 42.666667 0 1 0 85.333334 0 42.666667 42.666667 0 1 0-85.333334 0Z" p-id="8880" fill="#bfbfbf"></path></svg>