<?xml version="1.0" standalone="no"?><!DOCTYPE svg PUBLIC "-//W3C//DTD SVG 1.1//EN" "http://www.w3.org/Graphics/SVG/1.1/DTD/svg11.dtd"><svg t="1552727515395" class="icon" style="" viewBox="0 0 1024 1024" version="1.1" xmlns="http://www.w3.org/2000/svg" p-id="7955" xmlns:xlink="http://www.w3.org/1999/xlink" width="200" height="200"><defs><style type="text/css"></style></defs><path d="M976 611.2c3.2-19.2-9.6-38.4-28.8-41.6-19.2-3.2-38.4 9.6-41.6 28.8C870.4 784 704 928 508.8 928c-224 0-403.2-179.2-403.2-400S284.8 128 508.8 128c124.8 0 236.8 57.6 310.4 144h-89.6c-19.2 0-35.2 16-35.2 35.2 0 19.2 16 35.2 35.2 35.2h176c19.2 0 35.2-16 35.2-35.2V128c0-19.2-16-35.2-35.2-35.2-19.2 0-35.2 16-35.2 35.2v99.2c-86.4-105.6-217.6-169.6-364.8-169.6C246.4 57.6 32 268.8 32 528s214.4 470.4 476.8 473.6c233.6-3.2 425.6-169.6 467.2-390.4z" fill="#1296db" p-id="7956"></path></svg>