<?xml version="1.0" standalone="no"?><!DOCTYPE svg PUBLIC "-//W3C//DTD SVG 1.1//EN" "http://www.w3.org/Graphics/SVG/1.1/DTD/svg11.dtd"><svg t="1552723643812" class="icon" style="" viewBox="0 0 1024 1024" version="1.1" xmlns="http://www.w3.org/2000/svg" p-id="3892" xmlns:xlink="http://www.w3.org/1999/xlink" width="200" height="200"><defs><style type="text/css"></style></defs><path d="M777.376 758.624a31.968 31.968 0 0 0 45.248 0l160-160a31.968 31.968 0 0 0 0-45.248l-160-160a31.968 31.968 0 1 0-45.248 45.248L914.752 576l-137.376 137.376a31.968 31.968 0 0 0 0 45.248zM624.96 376.256l-96 384a32 32 0 1 0 62.112 15.52l96-384a32 32 0 1 0-62.112-15.52zM438.624 393.376a31.968 31.968 0 0 0-45.248 0l-160 160a31.968 31.968 0 0 0 0 45.248l160 160a31.968 31.968 0 1 0 45.248-45.248L301.248 576l137.376-137.376a31.968 31.968 0 0 0 0-45.248z" p-id="3893" fill="#1296db"></path><path d="M896 96H128a96 96 0 0 0-96 96v640a96 96 0 0 0 96 96h768a96 96 0 0 0 96-96v-51.552a32 32 0 0 0-64 0V832a32 32 0 0 1-32 32H128a32 32 0 0 1-32-32V304h832v64a32 32 0 0 0 64 0V192a96 96 0 0 0-96-96z m32 144H96V192a32 32 0 0 1 32-32h768a32 32 0 0 1 32 32v48z" p-id="3894" fill="#1296db"></path></svg>